<svg class="position-relative" style="top:3px" width="22" xmlns="http://www.w3.org/2000/svg" viewBox="834 153 612.7 487"><path fill="#f1f1f1" d="M1446.4 445.6c-.8-24.3-4.5-47.1-19.5-63-14.1-15-34.3-22.6-57-21.6-2.3.1-3.8.1-5.2-1.1-3.6-62.8-16.1-147.6-32.4-187.1-5.1-16.5-26.1-26.1-40.3-14.9-25.8 14.9-57.2 38.6-83.1 61.9-18.1-4.5-37.5-7.2-58.1-8-.8 0-1.6-.1-2.4-.1l-5.9-.1v-.1l-2.3.1-2.3-.1v.1l-5.9.1c-.8 0-1.6 0-2.4.1-20.6.7-40 3.4-58.1 8-25.9-23.3-57.4-47-83.1-61.9-14.2-11.2-35.2-1.6-40.3 14.9-16.1 39.5-28.6 124.2-32.3 187-1.4 1.2-2.9 1.2-5.1 1.1-22.7-1-42.9 6.7-57 21.6-14.9 15.8-18.7 38.7-19.5 63-.5 15.2-.5 20.5 2.4 41 4.7 33.4 28.7 60.2 61.8 63.1 5.8.5 11.6.7 17.5.7 4.6 0 9.3-.1 14-.2 5-.1 10.2-.2 15.6-.2 7.2 0 11.8-7.4 8.8-13.8-4.5-9.5-8.2-18.9-11.3-28.2-2.7-8.3-4.9-16.6-6.4-24.7-.2-.9-.3-1.8-.5-2.7-5.2-29.6-3-58.5 6.6-87.4 13.1-39.4 37.2-72.4 71.5-98.2 34.2-25.6 76.6-39.8 119.3-40h13.4c42.8.1 85.2 14.4 119.3 40 34.3 25.7 58.4 58.7 71.5 98.2 9.5 28.6 11.8 57.2 6.8 86.5-.4 2.5-.9 4.9-1.4 7.4-1.7 8.1-4 16.2-6.8 24.4s-6.2 16.5-10.2 24.9c-3 6.4 1.7 13.8 8.8 13.8 5.4 0 10.6.1 15.6.2 4.8.1 9.4.2 14 .2 5.9 0 11.7-.1 17.5-.7 33-2.9 57-29.7 61.8-63.1 3.1-20.6 3.1-26 2.6-41.1z"/><path fill="#f1f1f1" d="M1140.4 277.9c-100 0-181.1 81.1-181.1 181.1s81.1 181.1 181.1 181.1S1321.5 559 1321.5 459s-81.1-181.1-181.1-181.1zm48.2 198.6c-23.1 13.7-45.9 27.7-69.7 40-5.8 3.1-16.5 3.3-21.5-.2-4-2.8-5.8-14.6-3.2-19.8 12.2-25.3 10.6-49.3-.9-74.3-6-13 1.3-23.2 16.6-23.3 1.4.5 5.3 1.5 8.7 3.4 23.5 13.7 46.9 27.5 70.2 41.6 16.6 10 16.4 22.7-.2 32.6z"/></svg>