<svg width="100" viewBox="834 153 2279 487" xmlns="http://www.w3.org/2000/svg"><path fill="#fff" d="M1446.4 445.6c-.8-24.3-4.5-47.1-19.5-63-14.1-15-34.3-22.6-57-21.6-2.3.1-3.8.1-5.2-1.1-3.6-62.8-16.1-147.6-32.4-187.1-5.1-16.5-26.1-26.1-40.3-14.9-25.8 14.9-57.2 38.6-83.1 61.9-18.1-4.5-37.5-7.2-58.1-8-.8 0-1.6-.1-2.4-.1l-5.9-.1v-.1l-2.3.1-2.3-.1v.1l-5.9.1c-.8 0-1.6 0-2.4.1-20.6.7-40 3.4-58.1 8-25.9-23.3-57.4-47-83.1-61.9-14.2-11.2-35.2-1.6-40.3 14.9-16.1 39.5-28.6 124.2-32.3 187-1.4 1.2-2.9 1.2-5.1 1.1-22.7-1-42.9 6.7-57 21.6-14.9 15.8-18.7 38.7-19.5 63-.5 15.2-.5 20.5 2.4 41 4.7 33.4 28.7 60.2 61.8 63.1 5.8.5 11.6.7 17.5.7 4.6 0 9.3-.1 14-.2 5-.1 10.2-.2 15.6-.2 7.2 0 11.8-7.4 8.8-13.8-4.5-9.5-8.2-18.9-11.3-28.2-2.7-8.3-4.9-16.6-6.4-24.7-.2-.9-.3-1.8-.5-2.7-5.2-29.6-3-58.5 6.6-87.4 13.1-39.4 37.2-72.4 71.5-98.2 34.2-25.6 76.6-39.8 119.3-40h13.4c42.8.1 85.2 14.4 119.3 40 34.3 25.7 58.4 58.7 71.5 98.2 9.5 28.6 11.8 57.2 6.8 86.5-.4 2.5-.9 4.9-1.4 7.4-1.7 8.1-4 16.2-6.8 24.4s-6.2 16.5-10.2 24.9c-3 6.4 1.7 13.8 8.8 13.8 5.4 0 10.6.1 15.6.2 4.8.1 9.4.2 14 .2 5.9 0 11.7-.1 17.5-.7 33-2.9 57-29.7 61.8-63.1 3.1-20.6 3.1-26 2.6-41.1z"/><path fill="#fff" d="M1140.4 277.9c-100 0-181.1 81.1-181.1 181.1s81.1 181.1 181.1 181.1S1321.5 559 1321.5 459s-81.1-181.1-181.1-181.1zm48.2 198.6c-23.1 13.7-45.9 27.7-69.7 40-5.8 3.1-16.5 3.3-21.5-.2-4-2.8-5.8-14.6-3.2-19.8 12.2-25.3 10.6-49.3-.9-74.3-6-13 1.3-23.2 16.6-23.3 1.4.5 5.3 1.5 8.7 3.4 23.5 13.7 46.9 27.5 70.2 41.6 16.6 10 16.4 22.7-.2 32.6zM1746 290.2c19.2 0 35.8 3.2 50 9.7 14.1 6.3 25 15.3 32.7 27.2 7.7 11.7 11.5 25.5 11.5 41.5 0 15.9-3.8 29.8-11.5 41.5s-18.6 20.8-32.7 27.2c-14.1 6.3-30.8 9.4-50 9.4h-27c-5.5 0-9.9 4.4-9.9 9.9v35.6c0 5.5-4.4 9.9-9.9 9.9H1659c-5.5 0-9.9-4.4-9.9-9.9V300.1c0-5.5 4.4-9.9 9.9-9.9h87zm-3.6 109.3c12.3 0 21.6-2.6 27.9-7.9 6.3-5.5 9.4-13.1 9.4-23s-3.1-17.6-9.4-23c-6.3-5.5-15.5-8.2-27.9-8.2H1719c-5.5 0-9.9 4.4-9.9 9.9v42.3c0 5.5 4.4 9.9 9.9 9.9h23.4zm172.4-99.4c0-5.5 4.4-9.9 9.9-9.9h40.2c5.5 0 9.9 4.4 9.9 9.9v144.6c0 5.5 4.4 9.9 9.9 9.9h81.4c5.5 0 9.9 4.4 9.9 9.9v27.7c0 5.5-4.4 9.9-9.9 9.9h-141.3c-5.5 0-9.9-4.4-9.9-9.9V300.1zm377.2 167c-1.5-3.7-5.1-6.2-9.2-6.2h-76.3c-4 0-7.7 2.4-9.2 6.2l-11.6 28.8c-1.5 3.7-5.1 6.2-9.2 6.2h-39.3c-7.2 0-11.9-7.4-9.1-13.9l84.8-192.1c1.6-3.6 5.1-5.9 9.1-5.9h46.2c3.9 0 7.5 2.3 9.1 5.9l85.1 192.1c2.9 6.5-1.9 13.9-9.1 13.9h-40.5c-4 0-7.7-2.4-9.2-6.2l-11.6-28.8zm-34.7-50.3c7 0 11.8-7.1 9.2-13.6l-12.6-31.4c-3.3-8.3-15.1-8.3-18.4 0l-12.6 31.4c-2.6 6.5 2.2 13.6 9.2 13.6h25.2zm275.3 7c-.9 1.5-1.4 3.3-1.4 5.1v63.4c0 5.5-4.4 9.9-9.9 9.9h-40.2c-5.5 0-9.9-4.4-9.9-9.9V428c0-1.8-.5-3.6-1.4-5.1l-70.5-117.7c-3.9-6.6.8-15 8.5-15h40.2c3.5 0 6.7 1.8 8.5 4.8l38.9 65.1c3.8 6.4 13.2 6.4 17 0l38.9-65.1c1.8-3 5-4.8 8.5-4.8h35.1c7.7 0 12.4 8.4 8.5 15l-70.8 118.6zm299.9 32c5.5 0 9.9 4.4 9.9 9.9v26.5c0 5.5-4.4 9.9-9.9 9.9h-150.4c-5.5 0-9.9-4.4-9.9-9.9V300.1c0-5.5 4.4-9.9 9.9-9.9h146.5c5.5 0 9.9 4.4 9.9 9.9v26.5c0 5.5-4.4 9.9-9.9 9.9h-87.1c-5.5 0-9.9 4.4-9.9 9.9v15.9c0 5.5 4.4 9.9 9.9 9.9h74.4c5.5 0 9.9 4.4 9.9 9.9v25c0 5.5-4.4 9.9-9.9 9.9h-74.4c-5.5 0-9.9 4.4-9.9 9.9v18.9c0 5.5 4.4 9.9 9.9 9.9h91zm184.2-5.7c-1.8-2.7-4.9-4.3-8.2-4.3h-17.6c-5.5 0-9.9 4.4-9.9 9.9v36.5c0 5.5-4.4 9.9-9.9 9.9H2931c-5.5 0-9.9-4.4-9.9-9.9V300.1c0-5.5 4.4-9.9 9.9-9.9h87c19.2 0 35.8 3.2 50 9.7 14.1 6.3 25 15.3 32.7 27.2 7.7 11.7 11.5 25.5 11.5 41.5 0 15.3-3.6 28.8-10.9 40.3-5.2 8.3-12 15.3-20.6 21-5.1 3.4-6.9 10.2-3.5 15.2l28.6 41.6c4.5 6.6-.2 15.5-8.2 15.5h-40.2c-3.3 0-6.3-1.6-8.2-4.3l-32.5-47.8zm34.9-81.5c0-9.9-3.1-17.6-9.4-23-6.3-5.5-15.6-8.2-27.9-8.2h-23.4c-5.5 0-9.9 4.4-9.9 9.9v42.3c0 5.5 4.4 9.9 9.9 9.9h23.4c12.3 0 21.6-2.6 27.9-7.9 6.3-5.4 9.4-13.1 9.4-23z"/></svg>